<svg data-v-423bf9ae="" xmlns="http://www.w3.org/2000/svg" viewBox="0 0 222.50455784819005 60" class="font"><!----><!----><!----><g data-v-423bf9ae="" id="ab4d9985-8aa7-4b65-a83d-8afcf100c8f5" fill="black" transform="matrix(5.484460426963632,0,0,5.484460426963632,-3.839120743485239,-16.45338223456521)"><path d="M4.17 13.94C6.44 13.94 7.71 12.61 7.71 11.09C7.71 9.79 6.96 9.03 5.75 8.58L4.65 8.09C3.77 7.77 3.15 7.57 3.15 7C3.15 6.45 3.61 6.15 4.41 6.15C5.19 6.15 5.77 6.41 6.40 6.89L7.45 5.59C6.62 4.79 5.52 4.37 4.41 4.37C2.44 4.37 1.06 5.57 1.06 7.11C1.06 8.46 1.99 9.24 3.01 9.62L4.19 10.14C5.07 10.47 5.60 10.67 5.60 11.26C5.60 11.82 5.18 12.17 4.23 12.17C3.43 12.17 2.58 11.77 1.89 11.20L0.70 12.61C1.68 13.50 2.94 13.94 4.17 13.94ZM13.02 13.94C13.94 13.94 14.98 13.62 15.76 13.12L15.09 11.87C14.48 12.21 13.93 12.38 13.30 12.38C12.28 12.38 11.42 11.90 11.28 10.81L15.96 10.81C15.99 10.63 16.04 10.25 16.04 9.88C16.04 7.94 14.92 6.45 12.78 6.45C10.93 6.45 9.17 7.87 9.17 10.21C9.17 12.57 10.86 13.94 13.02 13.94ZM11.26 9.44C11.44 8.48 12.08 8.04 12.82 8.04C13.76 8.04 14.18 8.60 14.18 9.44ZM17.81 13.78L19.87 13.78L19.87 9.00C20.36 8.48 20.72 8.20 21.28 8.20C22.04 8.20 22.30 8.65 22.30 9.63L22.30 13.78L24.36 13.78L24.36 9.37C24.36 7.56 23.66 6.45 22.09 6.45C21.06 6.45 20.30 6.99 19.70 7.60L19.64 7.60L19.49 6.64L17.81 6.64ZM30.63 13.94C31.53 13.94 32.28 13.75 32.90 13.55L32.54 12.07C32.13 12.22 31.68 12.33 31.15 12.33C30.14 12.33 29.69 11.90 29.69 10.81L29.69 8.25L32.63 8.25L32.63 6.64L29.69 6.64L29.69 3.70L27.73 4.54L27.73 6.64L25.89 6.64L25.89 8.25L27.64 8.25L27.64 10.82C27.64 12.68 28.42 13.94 30.63 13.94ZM37.77 5.80C38.58 5.80 39.17 5.26 39.17 4.42C39.17 3.58 38.58 3.00 37.77 3.00C36.96 3.00 36.37 3.58 36.37 4.42C36.37 5.26 36.96 5.80 37.77 5.80ZM34.45 13.78L41.27 13.78L41.27 12.11L38.89 12.11L38.89 6.64L34.45 6.64L34.45 8.25L36.83 8.25L36.83 12.11L34.45 12.11Z"></path></g><!----><!----></svg>